<svg xmlns="http://www.w3.org/2000/svg" width="720" height="339" viewBox="0 0 720 339" font-family="monospace" font-size="12"><rect width="100%" height="100%" fill="#0b1016"/><circle cx="25.4" cy="162.0" r="5" fill="#6cf08a"/><circle cx="121.3" cy="111.6" r="5" fill="#6cf08a"/><circle cx="121.4" cy="186.1" r="5" fill="#6cf08a"/><circle cx="107.9" cy="101.1" r="5" fill="#6cf08a"/><circle cx="97.6" cy="130.5" r="1.8" fill="#6cf08a"/><circle cx="93.5" cy="143.1" r="1.8" fill="#6cf08a"/><circle cx="161.1" cy="117.5" r="5" fill="#6cf08a"/><circle cx="46.5" cy="149.5" r="1.8" fill="#6cf08a"/><circle cx="45.5" cy="152.2" r="1.8" fill="#6cf08a"/><circle cx="53.2" cy="163.4" r="1.8" fill="#6cf08a"/><circle cx="51.4" cy="151.7" r="1.8" fill="#6cf08a"/><circle cx="39.2" cy="154.8" r="1.8" fill="#6cf08a"/><circle cx="39.2" cy="165.4" r="1.8" fill="#6cf08a"/><circle cx="40.0" cy="167.2" r="1.8" fill="#6cf08a"/><circle cx="39.5" cy="168.1" r="1.8" fill="#6cf08a"/><circle cx="44.0" cy="178.3" r="1.8" fill="#6cf08a"/><circle cx="35.2" cy="168.1" r="1.8" fill="#6cf08a"/><circle cx="44.4" cy="168.6" r="1.8" fill="#6cf08a"/><circle cx="34.2" cy="167.2" r="1.8" fill="#6cf08a"/><circle cx="39.2" cy="176.5" r="1.8" fill="#6cf08a"/><circle cx="35.5" cy="182.3" r="1.8" fill="#6cf08a"/><circle cx="48.5" cy="178.6" r="1.8" fill="#6cf08a"/><circle cx="175.7" cy="25.4" r="1.8" fill="#6cf08a"/><circle cx="153.2" cy="39.6" r="1.8" fill="#6cf08a"/><circle cx="168.4" cy="35.2" r="1.8" fill="#6cf08a"/><circle cx="140.7" cy="59.7" r="1.8" fill="#6cf08a"/><circle cx="137.0" cy="48.3" r="1.8" fill="#6cf08a"/><circle cx="176.7" cy="35.7" r="1.8" fill="#6cf08a"/><circle cx="175.3" cy="43.7" r="1.8" fill="#6cf08a"/><circle cx="132.5" cy="62.8" r="1.8" fill="#6cf08a"/><circle cx="130.6" cy="175.3" r="1.8" fill="#6cf08a"/><circle cx="165.5" cy="187.3" r="1.8" fill="#6cf08a"/><circle cx="128.8" cy="167.7" r="1.8" fill="#6cf08a"/><circle cx="155.5" cy="193.6" r="1.8" fill="#6cf08a"/><circle cx="156.0" cy="176.7" r="1.8" fill="#6cf08a"/><circle cx="205.9" cy="214.0" r="1.8" fill="#6cf08a"/><circle cx="156.9" cy="189.7" r="1.8" fill="#6cf08a"/><circle cx="130.9" cy="178.9" r="1.8" fill="#6cf08a"/><circle cx="172.9" cy="47.1" r="1.8" fill="#6cf08a"/><circle cx="151.4" cy="61.9" r="1.8" fill="#6cf08a"/><circle cx="137.4" cy="66.2" r="1.8" fill="#6cf08a"/><circle cx="168.1" cy="60.4" r="1.8" fill="#6cf08a"/><circle cx="106.7" cy="102.7" r="1.8" fill="#6cf08a"/><circle cx="142.7" cy="68.9" r="1.8" fill="#6cf08a"/><circle cx="107.4" cy="102.7" r="1.8" fill="#6cf08a"/><circle cx="104.2" cy="100.9" r="1.8" fill="#6cf08a"/><circle cx="82.2" cy="151.3" r="1.8" fill="#6cf08a"/><circle cx="64.7" cy="169.8" r="1.8" fill="#6cf08a"/><circle cx="76.7" cy="162.2" r="1.8" fill="#6cf08a"/><circle cx="87.2" cy="148.5" r="1.8" fill="#6cf08a"/><circle cx="78.5" cy="154.0" r="1.8" fill="#6cf08a"/><circle cx="63.4" cy="135.6" r="1.8" fill="#6cf08a"/><circle cx="66.2" cy="138.7" r="1.8" fill="#6cf08a"/><circle cx="66.8" cy="139.8" r="1.8" fill="#6cf08a"/><circle cx="95.7" cy="137.1" r="1.8" fill="#6cf08a"/><circle cx="694.6" cy="177.5" r="5" fill="#ff5a4a"/><circle cx="365.0" cy="154.2" r="5" fill="#ff5a4a"/><circle cx="338.3" cy="227.8" r="5" fill="#ff5a4a"/><circle cx="318.7" cy="31.8" r="5" fill="#ff5a4a"/><circle cx="303.4" cy="137.8" r="5" fill="#ff5a4a"/><circle cx="315.9" cy="51.1" r="1.8" fill="#ff5a4a"/><circle cx="317.7" cy="50.4" r="1.8" fill="#ff5a4a"/><circle cx="313.1" cy="50.2" r="1.8" fill="#ff5a4a"/><circle cx="313.6" cy="52.4" r="1.8" fill="#ff5a4a"/><circle cx="330.9" cy="271.0" r="1.8" fill="#ff5a4a"/><circle cx="329.9" cy="273.2" r="1.8" fill="#ff5a4a"/><circle cx="333.8" cy="273.2" r="1.8" fill="#ff5a4a"/><circle cx="304.7" cy="43.3" r="1.8" fill="#ff5a4a"/><circle cx="294.4" cy="48.1" r="1.8" fill="#ff5a4a"/><circle cx="303.1" cy="37.4" r="1.8" fill="#ff5a4a"/><circle cx="294.4" cy="38.8" r="1.8" fill="#ff5a4a"/><circle cx="291.4" cy="35.9" r="1.8" fill="#ff5a4a"/><circle cx="293.1" cy="46.5" r="1.8" fill="#ff5a4a"/><circle cx="293.8" cy="35.6" r="1.8" fill="#ff5a4a"/><circle cx="287.9" cy="36.4" r="1.8" fill="#ff5a4a"/><circle cx="308.2" cy="115.6" r="1.8" fill="#ff5a4a"/><circle cx="268.5" cy="110.1" r="1.8" fill="#ff5a4a"/><circle cx="275.1" cy="121.9" r="1.8" fill="#ff5a4a"/><circle cx="268.3" cy="118.4" r="1.8" fill="#ff5a4a"/><circle cx="268.8" cy="104.0" r="1.8" fill="#ff5a4a"/><circle cx="275.6" cy="106.9" r="1.8" fill="#ff5a4a"/><circle cx="268.8" cy="120.7" r="1.8" fill="#ff5a4a"/><circle cx="271.3" cy="118.2" r="1.8" fill="#ff5a4a"/><circle cx="278.2" cy="141.6" r="1.8" fill="#ff5a4a"/><circle cx="269.4" cy="139.8" r="1.8" fill="#ff5a4a"/><circle cx="268.3" cy="134.9" r="1.8" fill="#ff5a4a"/><circle cx="268.4" cy="132.5" r="1.8" fill="#ff5a4a"/><circle cx="268.2" cy="137.2" r="1.8" fill="#ff5a4a"/><circle cx="268.1" cy="138.1" r="1.8" fill="#ff5a4a"/><circle cx="267.5" cy="138.2" r="1.8" fill="#ff5a4a"/><circle cx="268.3" cy="133.4" r="1.8" fill="#ff5a4a"/><circle cx="316.5" cy="157.5" r="1.8" fill="#ff5a4a"/><circle cx="267.4" cy="161.6" r="1.8" fill="#ff5a4a"/><circle cx="267.6" cy="154.8" r="1.8" fill="#ff5a4a"/><circle cx="267.4" cy="163.1" r="1.8" fill="#ff5a4a"/><circle cx="268.2" cy="139.4" r="1.8" fill="#ff5a4a"/><circle cx="267.2" cy="150.9" r="1.8" fill="#ff5a4a"/><circle cx="267.9" cy="150.0" r="1.8" fill="#ff5a4a"/><circle cx="267.2" cy="166.8" r="1.8" fill="#ff5a4a"/><circle cx="298.4" cy="49.1" r="1.8" fill="#ff5a4a"/><circle cx="297.8" cy="46.5" r="1.8" fill="#ff5a4a"/><circle cx="298.7" cy="35.8" r="1.8" fill="#ff5a4a"/><circle cx="270.6" cy="69.5" r="1.8" fill="#ff5a4a"/><circle cx="292.4" cy="38.0" r="1.8" fill="#ff5a4a"/><circle cx="299.9" cy="36.8" r="1.8" fill="#ff5a4a"/><circle cx="301.9" cy="46.9" r="1.8" fill="#ff5a4a"/><circle cx="300.8" cy="48.6" r="1.8" fill="#ff5a4a"/><circle cx="269.1" cy="113.9" r="1.8" fill="#ff5a4a"/><circle cx="269.3" cy="108.0" r="1.8" fill="#ff5a4a"/><circle cx="269.2" cy="111.0" r="1.8" fill="#ff5a4a"/><circle cx="269.1" cy="115.5" r="1.8" fill="#ff5a4a"/><circle cx="269.5" cy="104.7" r="1.8" fill="#ff5a4a"/><circle cx="268.8" cy="105.5" r="1.8" fill="#ff5a4a"/><circle cx="268.6" cy="111.8" r="1.8" fill="#ff5a4a"/><circle cx="268.3" cy="117.3" r="1.8" fill="#ff5a4a"/><circle cx="268.9" cy="120.7" r="1.8" fill="#ff5a4a"/><text x="157.4" y="37.8" fill="#6cf08a" text-anchor="middle">Red: left</text><text x="153.8" y="179.4" fill="#6cf08a" text-anchor="middle">Gold: right</text><text x="136.4" y="70.3" fill="#6cf08a" text-anchor="middle">Blue: left</text><text x="295.4" y="34.3" fill="#ff5a4a" text-anchor="middle">Black: screen</text><text x="269.5" y="131" fill="#ff5a4a" text-anchor="middle">Obsidian: screen</text><text x="295.1" y="40.4" fill="#ff5a4a" text-anchor="middle">Scimitar: screen</text><text x="10" y="325" fill="#cfd8de">22 s · THE REBEL ALLIANCE: pincer (green) · THE IMPERIAL STARFLEET: hold (red) · plot width 16996 m · x across, z down</text></svg>